<svg xmlns="http://www.w3.org/2000/svg" viewBox="0 0 425.4 437.71"><defs><style>.cls-1,.cls-11,.cls-13,.cls-16,.cls-17,.cls-18,.cls-19,.cls-20,.cls-4,.cls-5,.cls-7{fill:none;}.cls-1{stroke:#007ba6;}.cls-1,.cls-11,.cls-4,.cls-5{stroke-miterlimit:10;}.cls-2{fill:#007ba6;}.cls-10,.cls-14,.cls-15,.cls-3,.cls-8,.cls-9{isolation:isolate;}.cls-10,.cls-3{font-size:16px;fill:#3c3c3b;}.cls-10,.cls-14,.cls-15,.cls-3,.cls-8{font-family:ArialMT, Arial;}.cls-11,.cls-13,.cls-16,.cls-4{stroke:#2b2523;}.cls-4{stroke-width:1.06px;}.cls-5{stroke:#26231e;}.cls-6{fill:#26231e;}.cls-7{stroke:#f39200;}.cls-13,.cls-16,.cls-17,.cls-18,.cls-19,.cls-20,.cls-7{stroke-linecap:round;stroke-linejoin:round;}.cls-15,.cls-8{font-size:8px;}.cls-12,.cls-14,.cls-15,.cls-8{fill:#2b2523;}.cls-8{letter-spacing:-0.04em;}.cls-10,.cls-15{letter-spacing:-0.12em;}.cls-13{stroke-width:0.75px;}.cls-14{font-size:6.28px;}.cls-16{stroke-width:0.75px;}.cls-17,.cls-18,.cls-19{stroke:#9bbc59;}.cls-18{stroke-dasharray:2.85 1.9;}.cls-19{stroke-dasharray:3 2;}.cls-20{stroke:#5281bd;}.cls-21{fill:#7a6958;}</style></defs><g id="Layer_2" data-name="Layer 2"><g id="svg196"><g id="Layer_2-2" data-name="Layer 2"><g id="Layer_1-2" data-name="Layer 1-2"><g id="Layer_2-2-2" data-name="Layer 2-2"><g id="Layer_1-2-2" data-name="Layer 1-2-2"><line id="line8" class="cls-1" x1="4.8" y1="42.67" x2="4.8" y2="422.37"/><path id="path10" class="cls-2" d="M4.8,427.58A22.94,22.94,0,0,0,0,421.07l4.8,1.3,4.8-1.3A25.34,25.34,0,0,0,4.8,427.58Z"/><text id="text12" class="cls-3" transform="translate(12.82 238.74)">~140 min</text><path id="path14" class="cls-4" d="M267.1,324.42a11.69,11.69,0,0,1,11.6-11.7h.1"/><line id="line16" class="cls-5" x1="267.1" y1="299.72" x2="267.1" y2="330.42"/><path id="path18" class="cls-6" d="M267.1,336.42a30.9,30.9,0,0,0-4.8-8.5l4.8,1.7,4.8-1.7A27.49,27.49,0,0,0,267.1,336.42Z"/><text id="text20" class="cls-3" transform="translate(181.54 313.62)">Ligation of</text><text id="text22" class="cls-3" transform="translate(108.94 332.82)">sequencing adapters</text><path id="path24" class="cls-4" d="M268.9,245.22a11.69,11.69,0,0,1,11.6-11.7h.1"/><line id="line26" class="cls-5" x1="268.9" y1="221.02" x2="268.9" y2="251.72"/><path id="path28" class="cls-6" d="M268.9,257.72a30.9,30.9,0,0,0-4.8-8.5l4.8,1.7,4.8-1.7A30.9,30.9,0,0,0,268.9,257.72Z"/><line id="line30" class="cls-7" x1="290.5" y1="237.92" x2="321.1" y2="237.92"/><line id="line32" class="cls-7" x1="295.6" y1="232.52" x2="321.1" y2="232.52"/><text id="text34" class="cls-8" transform="matrix(-1, 0, 0, 1, 328.48, 235.08)">T</text><text id="text36" class="cls-3" transform="translate(181.1 234.91)">Ligation of</text><text id="text38" class="cls-3" transform="translate(185.9 254.11)">barcodes</text><g id="text42" class="cls-9"><text class="cls-3" transform="translate(173.55 13.73)">High molecular weight gDN</text><text class="cls-10" transform="translate(367.41 13.73)">A</text></g><line id="line44" class="cls-11" x1="269" y1="66.72" x2="269" y2="97.42"/><path id="path46" class="cls-12" d="M269,103.42a30.9,30.9,0,0,0-4.8-8.5l4.8,1.7,4.8-1.7A27.49,27.49,0,0,0,269,103.42Z"/><text id="text48" class="cls-3" transform="translate(193.88 80.65)">Optional</text><text id="text50" class="cls-3" transform="translate(158.98 99.85)">fragmentation</text><line id="line52" class="cls-11" x1="269" y1="145.42" x2="269" y2="176.12"/><path id="path54" class="cls-12" d="M269,182.22a30.9,30.9,0,0,0-4.8-8.5l4.8,1.7,4.8-1.7A25.66,25.66,0,0,0,269,182.22Z"/><text id="text56" class="cls-3" transform="translate(98.56 159.37)">Combined FFPE repair</text><text id="text58" class="cls-3" transform="translate(157.46 178.57)">and end-prep</text><line id="line60" class="cls-13" x1="334.2" y1="199.92" x2="338.7" y2="202.42"/><path id="path62" class="cls-13" d="M345.4,204a3.2,3.2,0,1,1-3.2-3.2A3.29,3.29,0,0,1,345.4,204Z"/><text id="text64" class="cls-14" transform="translate(340.37 205.91)">p</text><text id="text66" class="cls-15" transform="translate(336.73 197.27)">A</text><text id="text68" class="cls-15" transform="translate(197.03 209.98)">A</text><line id="line70" class="cls-13" x1="203.4" y1="203.62" x2="198.9" y2="201.12"/><circle id="circle72" class="cls-16" cx="195.81" cy="199.33" r="3.2"/><text id="text74" class="cls-14" transform="translate(193.97 201.22)">p</text><path id="path76" class="cls-17" d="M292.3,206.92c14,.3,34.3-5.5,41.9-7"/><path id="path78" class="cls-17" d="M204,207.62c15.9-4.7,31.8-9.4,46.5-9.5"/><path id="path80" class="cls-17" d="M250.5,198.12H252"/><path id="path82" class="cls-18" d="M253.9,198.32c12.5,1,24,7.5,36,8.5"/><path id="path84" class="cls-17" d="M290.8,206.82c.5,0,1,.1,1.5.1"/><path id="path86" class="cls-17" d="M250.5,194.12H252"/><path id="path88" class="cls-18" d="M253.9,194.22c12.5,1,24,7.5,36,8.5"/><path id="path90" class="cls-17" d="M290.8,202.82c.5,0,1,.1,1.5.1"/><path id="path92" class="cls-17" d="M292.3,202.82c14,.3,34.3-5.5,41.9-7"/><path id="path94" class="cls-17" d="M204,203.62c15.9-4.7,31.8-9.4,46.5-9.5"/><path id="path96" class="cls-17" d="M292.2,131.62c14,.3,34.3-5.5,41.9-7"/><path id="path98" class="cls-17" d="M203.8,132.42c15.9-4.7,31.8-9.4,46.5-9.5"/><path id="path100" class="cls-17" d="M250.3,122.92h1.5"/><path id="path102" class="cls-18" d="M253.7,123c12.5,1,24,7.5,36,8.5"/><path id="path104" class="cls-17" d="M290.7,131.52c.5,0,1,.1,1.5.1"/><path id="path106" class="cls-17" d="M250.3,118.82h1.5"/><path id="path108" class="cls-18" d="M253.7,118.92c12.5,1,24,7.5,36,8.5"/><path id="path110" class="cls-17" d="M290.7,127.52c.5,0,1,.1,1.5.1"/><path id="path112" class="cls-17" d="M292.2,127.62c14,.3,34.3-5.5,41.9-7"/><path id="path114" class="cls-17" d="M203.8,128.32c15.9-4.7,31.8-9.4,46.5-9.5"/><path id="path116" class="cls-17" d="M296.4,32.22c8.5.5,15.6,9.7,23.6,10.6s20.2-4,24.7-5.1"/><path id="path118" class="cls-17" d="M193.2,43.72c9.4-4.2,18.9-8.5,27.4-8.2s15.8,9.2,23.8,9.9"/><path id="path120" class="cls-17" d="M296.4,36.32c8.5.5,15.6,9.7,23.6,10.6s20.2-4,24.7-5.1"/><path id="path122" class="cls-17" d="M194.3,47.32c9.4-4.2,18.9-8.5,27.4-8.2s15.8,9.2,23.8,9.9"/><path id="path124" class="cls-19" d="M244.5,45.52c8.1.7,19.8-4.2,24.3-5.8,9.7-3.9,19-7.9,27.6-7.4"/><path id="path126" class="cls-19" d="M245.6,49.22c8.1.7,20-4.4,24.3-5.9,9.7-3.9,17.9-7.5,26.5-6.9"/><polyline id="polyline128" class="cls-20" points="317.9 329.22 321.1 326.02 348.9 326.02"/><polyline id="polyline130" class="cls-20" points="291.1 306.92 310.9 320.32 352.2 320.32"/><path id="path132" class="cls-21" d="M311.2,317c.1-6.2-4.6-6.4-5.8-5.3s-6.5,6.9-3.4,8.4,6.7,1.6,6.4.6C306.5,314.92,311.2,320.12,311.2,317Z"/><line id="line134" class="cls-17" x1="199.5" y1="275.62" x2="249.6" y2="275.62"/><line id="line136" class="cls-17" x1="199.5" y1="281.22" x2="249.6" y2="281.22"/><line id="line138" class="cls-7" x1="168.9" y1="281.22" x2="199.5" y2="281.22"/><line id="line140" class="cls-19" x1="249.6" y1="275.62" x2="288.1" y2="275.62"/><line id="line142" class="cls-19" x1="249.6" y1="281.22" x2="288.3" y2="281.22"/><line id="line144" class="cls-7" x1="174" y1="275.62" x2="199.5" y2="275.62"/><line id="line146" class="cls-17" x1="288.3" y1="275.62" x2="338.3" y2="275.62"/><line id="line148" class="cls-17" x1="288.3" y1="281.22" x2="338.3" y2="281.22"/><line id="line150" class="cls-7" x1="338.3" y1="275.62" x2="368.9" y2="275.62"/><line id="line152" class="cls-7" x1="363.8" y1="281.22" x2="338.3" y2="281.22"/><line id="line154" class="cls-17" x1="199.5" y1="353.62" x2="249.6" y2="353.62"/><line id="line156" class="cls-17" x1="199.5" y1="359.22" x2="249.6" y2="359.22"/><line id="line158" class="cls-7" x1="168.9" y1="359.22" x2="199.5" y2="359.22"/><line id="line160" class="cls-19" x1="249.6" y1="353.62" x2="288.1" y2="353.62"/><line id="line162" class="cls-19" x1="249.6" y1="359.22" x2="288.3" y2="359.22"/><line id="line164" class="cls-7" x1="174" y1="353.62" x2="199.5" y2="353.62"/><line id="line166" class="cls-17" x1="288.3" y1="353.62" x2="338.3" y2="353.62"/><line id="line168" class="cls-17" x1="288.3" y1="359.22" x2="338.3" y2="359.22"/><line id="line170" class="cls-7" x1="338.3" y1="353.62" x2="368.9" y2="353.62"/><line id="line172" class="cls-7" x1="363.8" y1="359.22" x2="338.3" y2="359.22"/><polyline id="polyline174" class="cls-20" points="400 350.32 396.7 353.62 368.9 353.62"/><text id="text176" class="cls-3" transform="translate(240.55 432.51)">Loading</text><line id="line178" class="cls-11" x1="267.1" y1="378.32" x2="267.1" y2="408.92"/><path id="path180" class="cls-12" d="M267.1,415a30.9,30.9,0,0,0-4.8-8.5l4.8,1.7,4.8-1.7A25.66,25.66,0,0,0,267.1,415Z"/><polyline id="polyline182" class="cls-20" points="424.9 372.72 405.1 359.22 363.8 359.22"/><path id="path184" class="cls-21" d="M406.6,363.52c-.1,6.2,4.6,6.4,5.8,5.3s6.5-6.9,3.4-8.4-6.7-1.6-6.4-.6C411.3,365.62,406.7,360.42,406.6,363.52Z"/><polyline id="polyline186" class="cls-20" points="137.9 362.52 141.1 359.22 168.9 359.22"/><polyline id="polyline188" class="cls-20" points="113 340.12 132.7 353.62 174 353.62"/><path id="path190" class="cls-21" d="M131.2,349.22c.1-6.2-4.6-6.4-5.8-5.3s-6.5,6.9-3.4,8.4,6.7,1.6,6.4.6C126.5,347.22,131.2,352.32,131.2,349.22Z"/></g></g></g></g></g></g></svg>