<svg xmlns="http://www.w3.org/2000/svg" xmlns:xlink="http://www.w3.org/1999/xlink" viewBox="0 0 561.87 486.94"><defs><style>.cls-1{fill:url(#linear-gradient);}.cls-2{fill:url(#linear-gradient-2);}.cls-3{fill:url(#linear-gradient-3);}.cls-4{fill:url(#linear-gradient-4);}.cls-5{fill:url(#linear-gradient-5);}.cls-10,.cls-11,.cls-13,.cls-14,.cls-19,.cls-20,.cls-26,.cls-27,.cls-32,.cls-6,.cls-7{fill:none;}.cls-11,.cls-6{stroke:#2b2523;}.cls-11,.cls-13,.cls-14,.cls-19,.cls-20,.cls-26,.cls-27,.cls-32,.cls-6,.cls-7{stroke-linecap:round;stroke-linejoin:round;}.cls-6{stroke-width:1.06px;}.cls-10,.cls-22,.cls-23,.cls-24,.cls-25,.cls-28,.cls-29,.cls-30,.cls-31,.cls-7{stroke:#26231e;}.cls-8{fill:#26231e;}.cls-9{font-size:16px;fill:#3c3c3b;font-family:Arial, Arial;}.cls-10,.cls-22,.cls-23,.cls-24,.cls-25,.cls-28,.cls-29,.cls-30,.cls-31{stroke-miterlimit:10;}.cls-12{fill:#2b2523;}.cls-13,.cls-14{stroke:#a5bb4b;}.cls-14{stroke-dasharray:4.64 3.48;}.cls-15{letter-spacing:-0.06em;}.cls-16{mask:url(#mask);}.cls-17{fill:#fff;}.cls-18{mask:url(#mask-2);}.cls-19,.cls-20{stroke:#9bbc59;}.cls-20{stroke-dasharray:3 2;}.cls-21{mask:url(#mask-3);}.cls-22{fill:url(#radial-gradient);}.cls-23{fill:url(#radial-gradient-2);}.cls-24{fill:url(#radial-gradient-3);}.cls-25{fill:url(#radial-gradient-4);}.cls-26{stroke:#e30613;}.cls-27{stroke:#f39200;}.cls-28{fill:url(#radial-gradient-5);}.cls-29{fill:url(#radial-gradient-6);}.cls-30{fill:url(#radial-gradient-7);}.cls-31{fill:url(#radial-gradient-8);}.cls-32{stroke:#5281bd;}.cls-33{fill:#7a6958;}.cls-34{mask:url(#mask-4);}.cls-35{mask:url(#mask-5);}.cls-36{fill:#a48a7b;}</style><linearGradient id="linear-gradient" x1="225.46" y1="173.19" x2="278.22" y2="173.19" gradientUnits="userSpaceOnUse"><stop offset="0" stop-color="#1d1d1b"/><stop offset="0.45" stop-color="#f6f6f6"/><stop offset="0.55" stop-color="#f6f6f6"/><stop offset="1" stop-color="#1d1d1b"/></linearGradient><linearGradient id="linear-gradient-2" x1="485.47" y1="173.18" x2="538.23" y2="173.18" xlink:href="#linear-gradient"/><linearGradient id="linear-gradient-3" x1="451.2" y1="64.74" x2="503.96" y2="64.74" xlink:href="#linear-gradient"/><linearGradient id="linear-gradient-4" x1="351.33" y1="261.15" x2="404.09" y2="261.15" xlink:href="#linear-gradient"/><linearGradient id="linear-gradient-5" x1="351.33" y1="408.29" x2="404.09" y2="408.29" xlink:href="#linear-gradient"/><mask id="mask" x="225.46" y="167.93" width="52.76" height="10.51" maskUnits="userSpaceOnUse"><rect class="cls-1" x="225.46" y="167.93" width="52.76" height="10.51"/></mask><mask id="mask-2" x="485.47" y="167.92" width="52.76" height="10.51" maskUnits="userSpaceOnUse"><rect class="cls-2" x="485.47" y="167.92" width="52.76" height="10.51"/></mask><mask id="mask-3" x="451.2" y="50.52" width="52.76" height="28.44" maskUnits="userSpaceOnUse"><rect class="cls-3" x="451.2" y="50.52" width="52.76" height="28.44"/></mask><radialGradient id="radial-gradient" cx="305.99" cy="64.41" r="60.54" gradientUnits="userSpaceOnUse"><stop offset="0" stop-color="#f7b31f"/><stop offset="1"/></radialGradient><radialGradient id="radial-gradient-2" cx="305.99" cy="89.65" r="60.54" xlink:href="#radial-gradient"/><radialGradient id="radial-gradient-3" cx="-109.79" cy="64.41" r="60.54" gradientTransform="matrix(-1, 0, 0, 1, 219.26, 0)" xlink:href="#radial-gradient"/><radialGradient id="radial-gradient-4" cx="-109.79" cy="89.65" r="60.54" gradientTransform="matrix(-1, 0, 0, 1, 219.26, 0)" xlink:href="#radial-gradient"/><radialGradient id="radial-gradient-5" cx="366.62" cy="136.83" r="60.54" xlink:href="#radial-gradient"/><radialGradient id="radial-gradient-6" cx="366.62" cy="162.08" r="60.54" xlink:href="#radial-gradient"/><radialGradient id="radial-gradient-7" cx="-170.42" cy="136.83" r="60.54" gradientTransform="matrix(-1, 0, 0, 1, 219.26, 0)" xlink:href="#radial-gradient"/><radialGradient id="radial-gradient-8" cx="-170.42" cy="162.08" r="60.54" gradientTransform="matrix(-1, 0, 0, 1, 219.26, 0)" xlink:href="#radial-gradient"/><mask id="mask-4" x="351.33" y="255.89" width="52.76" height="10.51" maskUnits="userSpaceOnUse"><rect class="cls-4" x="351.33" y="255.89" width="52.76" height="10.51"/></mask><mask id="mask-5" x="351.33" y="403.03" width="52.76" height="10.51" maskUnits="userSpaceOnUse"><rect class="cls-5" x="351.33" y="403.03" width="52.76" height="10.51"/></mask></defs><g id="Layer_2" data-name="Layer 2"><g id="Layer_1-2" data-name="Layer 1"><path class="cls-6" d="M377.88,374.25a11.72,11.72,0,0,1,11.72-11.72"/><line class="cls-7" x1="377.88" y1="350.03" x2="377.88" y2="380.72"/><path class="cls-8" d="M377.88,386.75a30.31,30.31,0,0,0-4.75-8.55l4.75,1.72,4.76-1.72A30.1,30.1,0,0,0,377.88,386.75Z"/><text class="cls-9" transform="translate(106.99 372.66)">Attachment of sequencing adapters</text><line class="cls-10" x1="4.76" y1="2.27" x2="4.76" y2="458.22"/><path class="cls-8" d="M4.76,464.25A30.39,30.39,0,0,0,0,455.71l4.76,1.72,4.75-1.72A30.12,30.12,0,0,0,4.76,464.25Z"/><text class="cls-9" transform="translate(13.26 230.9)">&lt; 60 min</text><text class="cls-9" transform="translate(349.72 481.75)">Loading</text><line class="cls-11" x1="378.2" y1="427.53" x2="378.2" y2="458.22"/><path class="cls-12" d="M378.2,464.25a30.39,30.39,0,0,0-4.76-8.54l4.76,1.72,4.75-1.72A30.12,30.12,0,0,0,378.2,464.25Z"/><text class="cls-9" transform="translate(232.59 13.73)">Barcoded transposome <tspan x="55.15" y="19.2">complex</tspan></text><line class="cls-13" x1="477.72" y1="169.81" x2="480.48" y2="169.81"/><line class="cls-14" x1="483.96" y1="169.81" x2="498.47" y2="169.81"/><line class="cls-13" x1="500.21" y1="169.81" x2="502.96" y2="169.81"/><line class="cls-13" x1="478.66" y1="175.42" x2="481.41" y2="175.42"/><line class="cls-14" x1="484.89" y1="175.42" x2="499.4" y2="175.42"/><line class="cls-13" x1="501.14" y1="175.42" x2="503.9" y2="175.42"/><line class="cls-7" x1="377.05" y1="75.76" x2="377.05" y2="106.45"/><path class="cls-8" d="M377.05,112.48a30.15,30.15,0,0,0-4.76-8.54l4.76,1.72,4.75-1.72A30.12,30.12,0,0,0,377.05,112.48Z"/><path class="cls-6" d="M365.33,67.05a11.72,11.72,0,0,1,11.72,11.72"/><path class="cls-6" d="M377.05,78.77a11.72,11.72,0,0,1,11.72-11.72"/><line class="cls-7" x1="377.05" y1="202.52" x2="377.05" y2="233.21"/><path class="cls-8" d="M377.05,239.24a30.15,30.15,0,0,0-4.76-8.54l4.76,1.72,4.75-1.72A30.12,30.12,0,0,0,377.05,239.24Z"/><text class="cls-9" transform="translate(114.13 214.83)">Cleavage of gDN<tspan class="cls-15" x="121.84" y="0">A</tspan><tspan x="131.63" y="0" xml:space="preserve"> by transposase</tspan><tspan x="69.34" y="19.2">and addition of barcodes</tspan></text><line class="cls-13" x1="254.28" y1="169.81" x2="257.03" y2="169.81"/><line class="cls-14" x1="260.51" y1="169.81" x2="275.02" y2="169.81"/><line class="cls-13" x1="276.77" y1="169.81" x2="279.52" y2="169.81"/><line class="cls-13" x1="255.21" y1="175.42" x2="257.97" y2="175.42"/><line class="cls-14" x1="261.45" y1="175.42" x2="275.96" y2="175.42"/><line class="cls-13" x1="277.7" y1="175.42" x2="280.46" y2="175.42"/><line class="cls-13" x1="279.52" y1="169.81" x2="479.41" y2="169.81"/><line class="cls-13" x1="279.52" y1="175.42" x2="479.41" y2="175.42"/><text class="cls-9" transform="translate(454.8 23.33)">gDN<tspan class="cls-15" x="32.01" y="0">A</tspan></text><g class="cls-16"><rect class="cls-17" x="225.46" y="167.93" width="52.76" height="10.51"/></g><g class="cls-18"><rect class="cls-17" x="485.47" y="167.92" width="52.76" height="10.51"/></g><path class="cls-19" d="M504.29,56.15c8.53.53,15.56,9.68,23.61,10.59s20.22-4,24.74-5.12"/><path class="cls-19" d="M401.14,67.62c9.44-4.23,18.88-8.46,27.42-8.17s15.77,9.25,23.84,9.94"/><path class="cls-19" d="M504.29,60.21c8.53.53,15.56,9.68,23.61,10.59s20.22-4,24.74-5.12"/><path class="cls-19" d="M402.23,71.26c9.44-4.23,18.88-8.46,27.42-8.16s15.77,9.25,23.84,9.94"/><path class="cls-20" d="M452.4,69.44c8.08.69,19.81-4.2,24.31-5.83,9.7-3.88,19.05-7.94,27.58-7.41"/><path class="cls-20" d="M453.49,73.09c8.08.69,20-4.39,24.34-5.88,9.73-3.88,17.93-7.48,26.46-6.95"/><g class="cls-21"><rect class="cls-17" x="451.2" y="50.52" width="52.76" height="28.44"/></g><circle class="cls-22" cx="301.63" cy="68.15" r="16.73"/><circle class="cls-23" cx="301.63" cy="93.39" r="16.73"/><circle class="cls-24" cx="333.42" cy="68.15" r="16.73"/><circle class="cls-25" cx="333.42" cy="93.39" r="16.73"/><polyline class="cls-26" points="306.46 86.68 305.96 82.6 286.4 63.04"/><line class="cls-26" x1="314" y1="84.47" x2="288.99" y2="59.46"/><line class="cls-27" x1="273.95" y1="44.42" x2="288.98" y2="59.45"/><line class="cls-27" x1="271.86" y1="48.49" x2="286.4" y2="63.04"/><polyline class="cls-26" points="328.59 86.68 329.09 82.6 348.64 63.04"/><line class="cls-26" x1="321.05" y1="84.47" x2="346.06" y2="59.46"/><line class="cls-27" x1="361.1" y1="44.42" x2="346.06" y2="59.45"/><line class="cls-27" x1="363.17" y1="48.51" x2="348.65" y2="63.04"/><circle class="cls-28" cx="362.26" cy="140.57" r="16.73"/><circle class="cls-29" cx="362.26" cy="165.82" r="16.73"/><circle class="cls-30" cx="394.05" cy="140.57" r="16.73"/><circle class="cls-31" cx="394.05" cy="165.82" r="16.73"/><polyline class="cls-26" points="367.09 159.11 366.59 155.02 347.03 135.46"/><line class="cls-26" x1="374.62" y1="156.89" x2="349.61" y2="131.88"/><line class="cls-27" x1="334.58" y1="116.84" x2="349.61" y2="131.88"/><line class="cls-27" x1="332.66" y1="121.1" x2="347.03" y2="135.46"/><polyline class="cls-26" points="389.22 159.11 389.72 155.02 409.27 135.46"/><line class="cls-26" x1="381.68" y1="156.89" x2="406.69" y2="131.88"/><line class="cls-27" x1="421.73" y1="116.84" x2="406.69" y2="131.88"/><line class="cls-27" x1="423.77" y1="120.96" x2="409.27" y2="135.46"/><polyline class="cls-32" points="424.27 379.46 428.45 376.19 459.79 376.19"/><polyline class="cls-32" points="398.74 357.32 418.51 370.79 462.47 370.79"/><path class="cls-33" d="M417,366.45c.12-6.19-4.61-6.4-5.77-5.29s-6.47,6.87-3.39,8.38,6.69,1.59,6.37.63C412.25,364.38,416.93,369.54,417,366.45Z"/><line class="cls-19" x1="396.99" y1="257.2" x2="447.03" y2="257.2"/><line class="cls-19" x1="396.99" y1="262.81" x2="447.03" y2="262.81"/><line class="cls-19" x1="308.39" y1="257.2" x2="358.43" y2="257.2"/><line class="cls-19" x1="308.39" y1="262.81" x2="358.43" y2="262.81"/><line class="cls-20" x1="357.67" y1="257.2" x2="396.2" y2="257.2"/><line class="cls-20" x1="357.51" y1="262.81" x2="396.2" y2="262.81"/><g class="cls-34"><rect class="cls-17" x="351.33" y="255.89" width="52.76" height="10.51"/></g><line class="cls-26" x1="277.12" y1="257.2" x2="307.73" y2="257.2"/><line class="cls-27" x1="251.6" y1="257.2" x2="277.12" y2="257.2"/><polyline class="cls-26" points="306.73 266.08 302.55 262.81 277.12 262.81"/><line class="cls-27" x1="253.61" y1="262.81" x2="277.12" y2="262.81"/><line class="cls-26" x1="477.64" y1="262.81" x2="447.03" y2="262.81"/><polyline class="cls-26" points="448.03 253.93 452.21 257.2 477.64 257.2"/><line class="cls-27" x1="501.76" y1="257.2" x2="477.64" y2="257.2"/><line class="cls-19" x1="396.99" y1="404.34" x2="447.03" y2="404.34"/><line class="cls-19" x1="396.99" y1="409.95" x2="447.03" y2="409.95"/><line class="cls-19" x1="308.39" y1="404.34" x2="358.43" y2="404.34"/><line class="cls-19" x1="308.39" y1="409.95" x2="358.43" y2="409.95"/><line class="cls-20" x1="357.67" y1="404.34" x2="396.2" y2="404.34"/><line class="cls-20" x1="357.51" y1="409.95" x2="396.2" y2="409.95"/><g class="cls-35"><rect class="cls-17" x="351.33" y="403.03" width="52.76" height="10.51"/></g><line class="cls-26" x1="277.12" y1="404.34" x2="307.73" y2="404.34"/><line class="cls-27" x1="249.6" y1="404.34" x2="277.12" y2="404.34"/><polyline class="cls-26" points="306.73 413.22 302.55 409.95 277.12 409.95"/><line class="cls-27" x1="249.6" y1="409.95" x2="277.12" y2="409.95"/><line class="cls-26" x1="477.64" y1="409.95" x2="447.03" y2="409.95"/><polyline class="cls-26" points="448.03 401.07 452.21 404.34 477.64 404.34"/><line class="cls-27" x1="504.91" y1="409.95" x2="477.64" y2="409.95"/><line class="cls-27" x1="505.15" y1="404.34" x2="477.64" y2="404.34"/><polyline class="cls-32" points="193.65 390.87 213.42 404.34 249.6 404.34"/><path class="cls-33" d="M211.9,400c.12-6.19-4.61-6.4-5.77-5.3s-6.46,6.87-3.39,8.38,6.69,1.59,6.38.64C207.17,397.93,211.85,403.08,211.9,400Z"/><polyline class="cls-32" points="218.56 413.22 221.8 409.95 249.6 409.95"/><polyline class="cls-32" points="561.38 423.42 541.6 409.95 505.15 409.95"/><path class="cls-33" d="M543.12,414.29c-.12,6.19,4.61,6.4,5.78,5.29s6.46-6.87,3.38-8.38-6.69-1.59-6.37-.64C547.86,416.36,543.18,411.2,543.12,414.29Z"/><polyline class="cls-32" points="536.47 401.07 533.22 404.34 505.42 404.34"/><circle class="cls-36" cx="273.53" cy="44" r="2.83"/><circle class="cls-36" cx="361.51" cy="44" r="2.83"/><circle class="cls-36" cx="334" cy="116.26" r="2.83"/><circle class="cls-36" cx="422.31" cy="116.26" r="2.83"/><circle class="cls-36" cx="250.6" cy="257.2" r="2.83"/><line class="cls-27" x1="505.15" y1="262.81" x2="477.64" y2="262.81"/><circle class="cls-36" cx="505.15" cy="262.81" r="2.83"/><circle class="cls-36" cx="462.47" cy="370.79" r="2.83"/><line class="cls-7" x1="377.05" y1="286.17" x2="377.05" y2="316.86"/><path class="cls-8" d="M377.05,322.9a30.2,30.2,0,0,0-4.76-8.55l4.76,1.72,4.75-1.72A30.18,30.18,0,0,0,377.05,322.9Z"/><text class="cls-9" transform="translate(151.48 299.05)">Pooling of barcoded libraries,<tspan x="104.07" y="19.2">SPRI clean-up</tspan></text></g></g></svg>